<mxfile host="drawio-plugin" modified="2022-05-07T22:15:52.824Z" agent="5.0 (X11; Linux x86_64) AppleWebKit/537.36 (KHTML, like Gecko) Chrome/97.0.4692.45 Safari/537.36" etag="HPx-EzYARNOVMO-aGD7_" version="15.5.4" type="embed"><diagram id="g-2kLw075Nzn8syZm8IP" name="Page-1"><mxGraphModel dx="3536" dy="1251" grid="1" gridSize="10" guides="1" tooltips="1" connect="1" arrows="1" fold="1" page="0" pageScale="1" pageWidth="827" pageHeight="1169" math="0" shadow="0"><root><mxCell id="0"/><mxCell id="1" parent="0"/><mxCell id="5" value="" style="rounded=0;whiteSpace=wrap;html=1;dashed=1;strokeColor=#000000;strokeWidth=2;fillColor=none;" vertex="1" parent="1"><mxGeometry x="-1680" y="-40" width="880" height="800" as="geometry"/></mxCell><mxCell id="YGCd123q43NfIVN3cXwZ-2" value="" style="rounded=0;whiteSpace=wrap;html=1;dashed=1;strokeColor=#FF0000;strokeWidth=2;fillColor=none;" parent="1" vertex="1"><mxGeometry x="-1640" width="800" height="600" as="geometry"/></mxCell><mxCell id="YGCd123q43NfIVN3cXwZ-40" value="" style="rounded=0;whiteSpace=wrap;html=1;dashed=1;fontFamily=Times New Roman;fontSize=16;fontColor=default;strokeColor=#7F00FF;strokeWidth=2;fillColor=none;align=left;" parent="1" vertex="1"><mxGeometry x="-1537" y="100" width="120" height="320" as="geometry"/></mxCell><mxCell id="YGCd123q43NfIVN3cXwZ-29" value="" style="rounded=0;whiteSpace=wrap;html=1;dashed=1;fontFamily=Times New Roman;fontSize=16;fontColor=default;strokeColor=#FF8000;strokeWidth=2;fillColor=none;align=left;" parent="1" vertex="1"><mxGeometry x="-1337" y="177.5" width="440" height="165" as="geometry"/></mxCell><mxCell id="YGCd123q43NfIVN3cXwZ-41" style="edgeStyle=orthogonalEdgeStyle;rounded=0;orthogonalLoop=1;jettySize=auto;html=1;exitX=0;exitY=0.5;exitDx=0;exitDy=0;exitPerimeter=0;entryX=0.5;entryY=0.02;entryDx=0;entryDy=0;entryPerimeter=0;fontFamily=Times New Roman;fontSize=16;fontColor=default;strokeWidth=2;" parent="1" source="YGCd123q43NfIVN3cXwZ-3" target="YGCd123q43NfIVN3cXwZ-12" edge="1"><mxGeometry relative="1" as="geometry"/></mxCell><mxCell id="YGCd123q43NfIVN3cXwZ-3" value="&lt;font face=&quot;Times New Roman&quot; style=&quot;font-size: 16px;&quot;&gt;PBM model&lt;/font&gt;" style="outlineConnect=0;dashed=0;verticalLabelPosition=bottom;verticalAlign=top;align=center;html=1;shape=mxgraph.aws3.emr_cluster;fillColor=#F58534;gradientColor=none;fontFamily=Helvetica;fontSize=12;fontColor=default;strokeColor=#FF0000;strokeWidth=2;" parent="1" vertex="1"><mxGeometry x="-1017" y="220" width="80" height="80" as="geometry"/></mxCell><mxCell id="YGCd123q43NfIVN3cXwZ-4" value="" style="rounded=0;whiteSpace=wrap;html=1;dashed=1;fontFamily=Times New Roman;fontSize=16;fontColor=default;strokeColor=#0FFF27;strokeWidth=2;fillColor=none;align=left;" parent="1" vertex="1"><mxGeometry x="-1337" y="20" width="440" height="120" as="geometry"/></mxCell><mxCell id="YGCd123q43NfIVN3cXwZ-56" style="edgeStyle=orthogonalEdgeStyle;rounded=0;orthogonalLoop=1;jettySize=auto;html=1;exitX=0;exitY=0.75;exitDx=0;exitDy=0;exitPerimeter=0;entryX=0;entryY=0.5;entryDx=0;entryDy=0;entryPerimeter=0;fontFamily=Times New Roman;fontSize=16;fontColor=default;strokeWidth=1;" parent="1" source="YGCd123q43NfIVN3cXwZ-5" target="YGCd123q43NfIVN3cXwZ-23" edge="1"><mxGeometry relative="1" as="geometry"><Array as="points"><mxPoint x="-1357" y="95"/><mxPoint x="-1357" y="260"/></Array></mxGeometry></mxCell><mxCell id="YGCd123q43NfIVN3cXwZ-5" value="&lt;font style=&quot;font-size: 16px&quot; color=&quot;#ffffff&quot;&gt;Raw data&lt;/font&gt;" style="sketch=0;points=[[0,0,0],[0.25,0,0],[0.5,0,0],[0.75,0,0],[1,0,0],[0,1,0],[0.25,1,0],[0.5,1,0],[0.75,1,0],[1,1,0],[0,0.25,0],[0,0.5,0],[0,0.75,0],[1,0.25,0],[1,0.5,0],[1,0.75,0]];outlineConnect=0;fontColor=#232F3E;gradientColor=#60A337;gradientDirection=north;fillColor=#277116;strokeColor=#ffffff;dashed=0;verticalLabelPosition=bottom;verticalAlign=top;align=center;html=1;fontSize=12;fontStyle=0;aspect=fixed;shape=mxgraph.aws4.resourceIcon;resIcon=mxgraph.aws4.s3;fontFamily=Times New Roman;" parent="1" vertex="1"><mxGeometry x="-1297" y="50" width="60" height="60" as="geometry"/></mxCell><mxCell id="YGCd123q43NfIVN3cXwZ-54" style="edgeStyle=orthogonalEdgeStyle;rounded=0;orthogonalLoop=1;jettySize=auto;html=1;exitX=1;exitY=0.5;exitDx=0;exitDy=0;exitPerimeter=0;entryX=0.915;entryY=0.5;entryDx=0;entryDy=0;entryPerimeter=0;fontFamily=Times New Roman;fontSize=16;fontColor=default;strokeWidth=2;" parent="1" source="YGCd123q43NfIVN3cXwZ-6" target="YGCd123q43NfIVN3cXwZ-3" edge="1"><mxGeometry relative="1" as="geometry"><Array as="points"><mxPoint x="-857" y="80"/><mxPoint x="-857" y="260"/></Array></mxGeometry></mxCell><mxCell id="YGCd123q43NfIVN3cXwZ-6" value="&lt;font style=&quot;font-size: 16px&quot; color=&quot;#ffffff&quot;&gt;Compacted data&lt;/font&gt;" style="sketch=0;points=[[0,0,0],[0.25,0,0],[0.5,0,0],[0.75,0,0],[1,0,0],[0,1,0],[0.25,1,0],[0.5,1,0],[0.75,1,0],[1,1,0],[0,0.25,0],[0,0.5,0],[0,0.75,0],[1,0.25,0],[1,0.5,0],[1,0.75,0]];outlineConnect=0;fontColor=#232F3E;gradientColor=#60A337;gradientDirection=north;fillColor=#277116;strokeColor=#ffffff;dashed=0;verticalLabelPosition=bottom;verticalAlign=top;align=center;html=1;fontSize=12;fontStyle=0;aspect=fixed;shape=mxgraph.aws4.resourceIcon;resIcon=mxgraph.aws4.s3;fontFamily=Times New Roman;" parent="1" vertex="1"><mxGeometry x="-997" y="50" width="60" height="60" as="geometry"/></mxCell><mxCell id="YGCd123q43NfIVN3cXwZ-8" value="&lt;font style=&quot;font-size: 16px&quot; color=&quot;#ffffff&quot;&gt;Archive&lt;/font&gt;" style="sketch=0;points=[[0,0,0],[0.25,0,0],[0.5,0,0],[0.75,0,0],[1,0,0],[0,1,0],[0.25,1,0],[0.5,1,0],[0.75,1,0],[1,1,0],[0,0.25,0],[0,0.5,0],[0,0.75,0],[1,0.25,0],[1,0.5,0],[1,0.75,0]];outlineConnect=0;fontColor=#232F3E;gradientColor=#60A337;gradientDirection=north;fillColor=#277116;strokeColor=#ffffff;dashed=0;verticalLabelPosition=bottom;verticalAlign=top;align=center;html=1;fontSize=12;fontStyle=0;aspect=fixed;shape=mxgraph.aws4.resourceIcon;resIcon=mxgraph.aws4.glacier;fontFamily=Times New Roman;" parent="1" vertex="1"><mxGeometry x="-1146" y="51" width="58" height="58" as="geometry"/></mxCell><mxCell id="YGCd123q43NfIVN3cXwZ-10" value="" style="rounded=0;whiteSpace=wrap;html=1;dashed=1;fontFamily=Times New Roman;fontSize=16;fontColor=default;strokeColor=#1212FF;strokeWidth=2;fillColor=none;align=left;" parent="1" vertex="1"><mxGeometry x="-1242" y="380" width="250" height="165" as="geometry"/></mxCell><mxCell id="YGCd123q43NfIVN3cXwZ-17" style="edgeStyle=orthogonalEdgeStyle;rounded=0;orthogonalLoop=1;jettySize=auto;html=1;exitX=1;exitY=0.5;exitDx=0;exitDy=0;exitPerimeter=0;entryX=0.5;entryY=0.02;entryDx=0;entryDy=0;entryPerimeter=0;fontFamily=Times New Roman;fontSize=16;fontColor=default;" parent="1" source="YGCd123q43NfIVN3cXwZ-12" target="YGCd123q43NfIVN3cXwZ-15" edge="1"><mxGeometry relative="1" as="geometry"/></mxCell><mxCell id="YGCd123q43NfIVN3cXwZ-18" style="edgeStyle=orthogonalEdgeStyle;rounded=0;orthogonalLoop=1;jettySize=auto;html=1;exitX=0;exitY=0.5;exitDx=0;exitDy=0;exitPerimeter=0;entryX=0.5;entryY=0.02;entryDx=0;entryDy=0;entryPerimeter=0;fontFamily=Times New Roman;fontSize=16;fontColor=default;" parent="1" source="YGCd123q43NfIVN3cXwZ-12" target="YGCd123q43NfIVN3cXwZ-14" edge="1"><mxGeometry relative="1" as="geometry"/></mxCell><mxCell id="YGCd123q43NfIVN3cXwZ-12" value="" style="outlineConnect=0;dashed=0;verticalLabelPosition=bottom;verticalAlign=top;align=center;html=1;shape=mxgraph.aws3.rds_db_instance;fillColor=#2E73B8;gradientColor=none;fontFamily=Times New Roman;fontSize=16;fontColor=default;strokeColor=#0FFF27;strokeWidth=2;" parent="1" vertex="1"><mxGeometry x="-1139" y="395" width="44" height="50" as="geometry"/></mxCell><mxCell id="YGCd123q43NfIVN3cXwZ-14" value="" style="outlineConnect=0;dashed=0;verticalLabelPosition=bottom;verticalAlign=top;align=center;html=1;shape=mxgraph.aws3.rds_db_instance_read_replica;fillColor=#2E73B8;gradientColor=none;fontFamily=Times New Roman;fontSize=16;fontColor=default;strokeColor=#1212FF;strokeWidth=2;" parent="1" vertex="1"><mxGeometry x="-1216" y="465" width="39" height="50" as="geometry"/></mxCell><mxCell id="YGCd123q43NfIVN3cXwZ-15" value="" style="outlineConnect=0;dashed=0;verticalLabelPosition=bottom;verticalAlign=top;align=center;html=1;shape=mxgraph.aws3.rds_db_instance_read_replica;fillColor=#2E73B8;gradientColor=none;fontFamily=Times New Roman;fontSize=16;fontColor=default;strokeColor=#1212FF;strokeWidth=2;" parent="1" vertex="1"><mxGeometry x="-1057" y="465" width="39" height="50" as="geometry"/></mxCell><mxCell id="YGCd123q43NfIVN3cXwZ-57" style="edgeStyle=orthogonalEdgeStyle;rounded=0;orthogonalLoop=1;jettySize=auto;html=1;exitX=0.915;exitY=0.5;exitDx=0;exitDy=0;exitPerimeter=0;entryX=0;entryY=0.5;entryDx=0;entryDy=0;entryPerimeter=0;fontFamily=Times New Roman;fontSize=16;fontColor=default;strokeWidth=1;" parent="1" source="YGCd123q43NfIVN3cXwZ-23" target="YGCd123q43NfIVN3cXwZ-8" edge="1"><mxGeometry relative="1" as="geometry"/></mxCell><mxCell id="YGCd123q43NfIVN3cXwZ-59" style="edgeStyle=orthogonalEdgeStyle;rounded=0;orthogonalLoop=1;jettySize=auto;html=1;exitX=0.5;exitY=0;exitDx=0;exitDy=0;exitPerimeter=0;entryX=0;entryY=0.5;entryDx=0;entryDy=0;entryPerimeter=0;fontFamily=Times New Roman;fontSize=16;fontColor=default;strokeWidth=1;" parent="1" source="YGCd123q43NfIVN3cXwZ-23" target="YGCd123q43NfIVN3cXwZ-6" edge="1"><mxGeometry relative="1" as="geometry"><Array as="points"><mxPoint x="-1257" y="200"/><mxPoint x="-1067" y="200"/><mxPoint x="-1067" y="80"/></Array></mxGeometry></mxCell><mxCell id="YGCd123q43NfIVN3cXwZ-23" value="&lt;font face=&quot;Times New Roman&quot; style=&quot;font-size: 16px;&quot;&gt;Compaction&lt;/font&gt;" style="outlineConnect=0;dashed=0;verticalLabelPosition=bottom;verticalAlign=top;align=center;html=1;shape=mxgraph.aws3.emr_cluster;fillColor=#F58534;gradientColor=none;fontFamily=Helvetica;fontSize=12;fontColor=default;strokeColor=#FF0000;strokeWidth=2;" parent="1" vertex="1"><mxGeometry x="-1297" y="220" width="80" height="80" as="geometry"/></mxCell><mxCell id="YGCd123q43NfIVN3cXwZ-37" style="edgeStyle=orthogonalEdgeStyle;rounded=0;orthogonalLoop=1;jettySize=auto;html=1;exitX=0.5;exitY=0;exitDx=0;exitDy=0;exitPerimeter=0;entryX=0.5;entryY=1;entryDx=0;entryDy=0;entryPerimeter=0;fontFamily=Times New Roman;fontSize=16;fontColor=default;strokeWidth=1;" parent="1" source="YGCd123q43NfIVN3cXwZ-32" target="YGCd123q43NfIVN3cXwZ-34" edge="1"><mxGeometry relative="1" as="geometry"/></mxCell><mxCell id="YGCd123q43NfIVN3cXwZ-32" value="" style="sketch=0;points=[[0,0,0],[0.25,0,0],[0.5,0,0],[0.75,0,0],[1,0,0],[0,1,0],[0.25,1,0],[0.5,1,0],[0.75,1,0],[1,1,0],[0,0.25,0],[0,0.5,0],[0,0.75,0],[1,0.25,0],[1,0.5,0],[1,0.75,0]];outlineConnect=0;fontColor=#232F3E;gradientColor=#945DF2;gradientDirection=north;fillColor=#5A30B5;strokeColor=#ffffff;dashed=0;verticalLabelPosition=bottom;verticalAlign=top;align=center;html=1;fontSize=12;fontStyle=0;aspect=fixed;shape=mxgraph.aws4.resourceIcon;resIcon=mxgraph.aws4.kinesis;fontFamily=Times New Roman;" parent="1" vertex="1"><mxGeometry x="-1507" y="350" width="60" height="60" as="geometry"/></mxCell><mxCell id="YGCd123q43NfIVN3cXwZ-38" style="edgeStyle=orthogonalEdgeStyle;rounded=0;orthogonalLoop=1;jettySize=auto;html=1;exitX=0.5;exitY=0;exitDx=0;exitDy=0;exitPerimeter=0;fontFamily=Times New Roman;fontSize=16;fontColor=default;strokeWidth=1;" parent="1" source="YGCd123q43NfIVN3cXwZ-34" target="YGCd123q43NfIVN3cXwZ-36" edge="1"><mxGeometry relative="1" as="geometry"/></mxCell><mxCell id="YGCd123q43NfIVN3cXwZ-47" style="edgeStyle=orthogonalEdgeStyle;rounded=0;orthogonalLoop=1;jettySize=auto;html=1;exitX=0;exitY=0.5;exitDx=0;exitDy=0;exitPerimeter=0;entryX=1;entryY=0.5;entryDx=0;entryDy=0;entryPerimeter=0;fontFamily=Times New Roman;fontSize=15;fontColor=default;strokeWidth=2;" parent="1" source="YGCd123q43NfIVN3cXwZ-34" target="YGCd123q43NfIVN3cXwZ-46" edge="1"><mxGeometry relative="1" as="geometry"/></mxCell><mxCell id="YGCd123q43NfIVN3cXwZ-34" value="" style="sketch=0;points=[[0,0,0],[0.25,0,0],[0.5,0,0],[0.75,0,0],[1,0,0],[0,1,0],[0.25,1,0],[0.5,1,0],[0.75,1,0],[1,1,0],[0,0.25,0],[0,0.5,0],[0,0.75,0],[1,0.25,0],[1,0.5,0],[1,0.75,0]];outlineConnect=0;fontColor=#232F3E;gradientColor=#945DF2;gradientDirection=north;fillColor=#5A30B5;strokeColor=#ffffff;dashed=0;verticalLabelPosition=bottom;verticalAlign=top;align=center;html=1;fontSize=12;fontStyle=0;aspect=fixed;shape=mxgraph.aws4.resourceIcon;resIcon=mxgraph.aws4.kinesis_data_analytics;fontFamily=Times New Roman;" parent="1" vertex="1"><mxGeometry x="-1507" y="230" width="60" height="60" as="geometry"/></mxCell><mxCell id="YGCd123q43NfIVN3cXwZ-39" style="edgeStyle=orthogonalEdgeStyle;rounded=0;orthogonalLoop=1;jettySize=auto;html=1;exitX=0.5;exitY=0;exitDx=0;exitDy=0;exitPerimeter=0;entryX=0;entryY=0.5;entryDx=0;entryDy=0;entryPerimeter=0;fontFamily=Times New Roman;fontSize=16;fontColor=default;strokeWidth=2;" parent="1" source="YGCd123q43NfIVN3cXwZ-36" target="YGCd123q43NfIVN3cXwZ-5" edge="1"><mxGeometry relative="1" as="geometry"/></mxCell><mxCell id="YGCd123q43NfIVN3cXwZ-36" value="" style="sketch=0;points=[[0,0,0],[0.25,0,0],[0.5,0,0],[0.75,0,0],[1,0,0],[0,1,0],[0.25,1,0],[0.5,1,0],[0.75,1,0],[1,1,0],[0,0.25,0],[0,0.5,0],[0,0.75,0],[1,0.25,0],[1,0.5,0],[1,0.75,0]];outlineConnect=0;fontColor=#232F3E;gradientColor=#945DF2;gradientDirection=north;fillColor=#5A30B5;strokeColor=#ffffff;dashed=0;verticalLabelPosition=bottom;verticalAlign=top;align=center;html=1;fontSize=12;fontStyle=0;aspect=fixed;shape=mxgraph.aws4.resourceIcon;resIcon=mxgraph.aws4.kinesis_data_firehose;fontFamily=Times New Roman;" parent="1" vertex="1"><mxGeometry x="-1507" y="110" width="60" height="60" as="geometry"/></mxCell><mxCell id="YGCd123q43NfIVN3cXwZ-45" style="edgeStyle=orthogonalEdgeStyle;rounded=0;orthogonalLoop=1;jettySize=auto;html=1;exitX=0.5;exitY=0;exitDx=0;exitDy=0;exitPerimeter=0;entryX=0.5;entryY=1;entryDx=0;entryDy=0;entryPerimeter=0;fontFamily=Times New Roman;fontSize=15;fontColor=default;strokeWidth=2;" parent="1" source="YGCd123q43NfIVN3cXwZ-42" target="YGCd123q43NfIVN3cXwZ-32" edge="1"><mxGeometry relative="1" as="geometry"/></mxCell><mxCell id="YGCd123q43NfIVN3cXwZ-48" style="edgeStyle=orthogonalEdgeStyle;rounded=0;orthogonalLoop=1;jettySize=auto;html=1;exitX=1;exitY=0.5;exitDx=0;exitDy=0;exitPerimeter=0;entryX=0;entryY=0.5;entryDx=0;entryDy=0;entryPerimeter=0;fontFamily=Times New Roman;fontSize=16;fontColor=default;strokeWidth=2;" parent="1" source="YGCd123q43NfIVN3cXwZ-42" target="YGCd123q43NfIVN3cXwZ-14" edge="1"><mxGeometry relative="1" as="geometry"/></mxCell><mxCell id="YGCd123q43NfIVN3cXwZ-49" style="edgeStyle=orthogonalEdgeStyle;rounded=0;orthogonalLoop=1;jettySize=auto;html=1;entryX=0.5;entryY=0.99;entryDx=0;entryDy=0;entryPerimeter=0;fontFamily=Times New Roman;fontSize=16;fontColor=default;strokeWidth=2;" parent="1" source="YGCd123q43NfIVN3cXwZ-42" target="YGCd123q43NfIVN3cXwZ-15" edge="1"><mxGeometry relative="1" as="geometry"/></mxCell><mxCell id="YGCd123q43NfIVN3cXwZ-42" value="&lt;font style=&quot;font-size: 15px&quot; color=&quot;#ffffff&quot;&gt;Flask API&lt;/font&gt;" style="sketch=0;points=[[0,0,0],[0.25,0,0],[0.5,0,0],[0.75,0,0],[1,0,0],[0,1,0],[0.25,1,0],[0.5,1,0],[0.75,1,0],[1,1,0],[0,0.25,0],[0,0.5,0],[0,0.75,0],[1,0.25,0],[1,0.5,0],[1,0.75,0]];outlineConnect=0;fontColor=#232F3E;gradientColor=#F78E04;gradientDirection=north;fillColor=#D05C17;strokeColor=#ffffff;dashed=0;verticalLabelPosition=bottom;verticalAlign=top;align=center;html=1;fontSize=12;fontStyle=0;aspect=fixed;shape=mxgraph.aws4.resourceIcon;resIcon=mxgraph.aws4.ec2;fontFamily=Times New Roman;" parent="1" vertex="1"><mxGeometry x="-1507" y="485" width="60" height="60" as="geometry"/></mxCell><mxCell id="YGCd123q43NfIVN3cXwZ-43" value="&lt;font style=&quot;font-size: 15px&quot; color=&quot;#ffffff&quot;&gt;Requests&lt;br&gt;generator&lt;/font&gt;" style="sketch=0;points=[[0,0,0],[0.25,0,0],[0.5,0,0],[0.75,0,0],[1,0,0],[0,1,0],[0.25,1,0],[0.5,1,0],[0.75,1,0],[1,1,0],[0,0.25,0],[0,0.5,0],[0,0.75,0],[1,0.25,0],[1,0.5,0],[1,0.75,0]];outlineConnect=0;fontColor=#232F3E;gradientColor=#F78E04;gradientDirection=north;fillColor=#D05C17;strokeColor=#ffffff;dashed=0;verticalLabelPosition=bottom;verticalAlign=top;align=center;html=1;fontSize=12;fontStyle=0;aspect=fixed;shape=mxgraph.aws4.resourceIcon;resIcon=mxgraph.aws4.ec2;fontFamily=Times New Roman;" parent="1" vertex="1"><mxGeometry x="-1590" y="650" width="60" height="60" as="geometry"/></mxCell><mxCell id="YGCd123q43NfIVN3cXwZ-46" value="&lt;font style=&quot;font-size: 16px;&quot;&gt;Charts&lt;/font&gt;" style="sketch=0;points=[[0,0,0],[0.25,0,0],[0.5,0,0],[0.75,0,0],[1,0,0],[0,1,0],[0.25,1,0],[0.5,1,0],[0.75,1,0],[1,1,0],[0,0.25,0],[0,0.5,0],[0,0.75,0],[1,0.25,0],[1,0.5,0],[1,0.75,0]];outlineConnect=0;fontColor=#232F3E;gradientColor=#945DF2;gradientDirection=north;fillColor=#5A30B5;strokeColor=#ffffff;dashed=0;verticalLabelPosition=bottom;verticalAlign=top;align=center;html=1;fontSize=12;fontStyle=0;aspect=fixed;shape=mxgraph.aws4.resourceIcon;resIcon=mxgraph.aws4.analytics;fontFamily=Times New Roman;" parent="1" vertex="1"><mxGeometry x="-1627" y="231" width="58" height="58" as="geometry"/></mxCell><mxCell id="4" value="" style="endArrow=classic;startArrow=classic;html=1;rounded=0;fontColor=#FFFFFF;entryX=0;entryY=0.5;entryDx=0;entryDy=0;entryPerimeter=0;exitX=0.5;exitY=0;exitDx=0;exitDy=0;exitPerimeter=0;edgeStyle=orthogonalEdgeStyle;" edge="1" parent="1" source="YGCd123q43NfIVN3cXwZ-43" target="YGCd123q43NfIVN3cXwZ-42"><mxGeometry width="50" height="50" relative="1" as="geometry"><mxPoint x="-1600" y="580" as="sourcePoint"/><mxPoint x="-1550" y="530" as="targetPoint"/><Array as="points"><mxPoint x="-1560" y="515"/></Array></mxGeometry></mxCell></root></mxGraphModel></diagram></mxfile>